<svg width="24" height="20" viewBox="0 0 24 20" fill="none" xmlns="http://www.w3.org/2000/svg">
<g clip-path="url(#clip0_20_784)">
<path d="M13.5781 9.87432L15.9178 12.5486L19.0638 14.5591L19.6124 9.89077L19.0638 5.32666L15.8574 7.09306L13.5781 9.87432Z" fill="#00832D"/>
<path d="M0 14.1256V18.1027C0 19.012 0.736457 19.7484 1.64571 19.7484H5.62286L6.44571 16.7423L5.62286 14.1256L2.89371 13.3027L0 14.1256Z" fill="#0066DA"/>
<path d="M5.62286 0L0 5.62286L2.89371 6.44571L5.62286 5.62286L6.432 3.04183L5.62286 0Z" fill="#E94235"/>
<path d="M5.62286 5.62305H0V14.1259H5.62286V5.62305Z" fill="#2684FC"/>
<path d="M22.6542 2.38103L19.0611 5.32686V14.5593L22.6707 17.5189C23.211 17.9413 24.001 17.5559 24.001 16.8688V3.01737C24.001 2.32206 23.1932 1.9408 22.6542 2.38103ZM13.5754 9.87452V14.1259H5.62109V19.7488H17.4154C18.3246 19.7488 19.0611 19.0123 19.0611 18.1031V14.5593L13.5754 9.87452Z" fill="#00AC47"/>
<path d="M17.4154 0H5.62109V5.62286H13.5754V9.87429L19.0611 5.32937V1.64571C19.0611 0.736457 18.3246 0 17.4154 0Z" fill="#FFBA00"/>
</g>
<defs>
<clipPath id="clip0_20_784">
<rect width="24" height="19.7486" fill="white"/>
</clipPath>
</defs>
</svg>
