<svg width="293" height="345" viewBox="0 0 293 345" fill="none" xmlns="http://www.w3.org/2000/svg">
<path opacity="0.1" d="M220.21 42.5597C242.389 54.3455 256.703 70.0282 263.153 89.6078C269.749 108.914 267.736 128.561 257.114 148.549C248.384 164.978 239.145 176.747 229.397 183.857C219.65 190.967 207.703 197.26 193.558 202.735C182.912 206.909 174.346 211.136 167.859 215.413C161.372 219.691 155.801 226.211 151.144 234.973L145.47 245.652L97.8263 220.334L106.338 204.316C111.722 194.185 118.012 186.643 125.209 181.689C132.68 176.881 142.44 172.06 154.489 167.226C167.103 161.991 177.291 156.695 185.053 151.339C192.815 145.983 199.679 137.692 205.645 126.466C209.282 119.62 211.003 111.756 210.807 102.874C210.885 94.1372 205.859 87.0769 195.728 81.6933C184.775 75.8731 174.926 75.9062 166.18 81.7926C157.707 87.8245 150.852 95.769 145.614 105.626C144.159 108.364 142.922 110.692 141.904 112.609C141.305 114.397 140.859 115.565 140.568 116.113L92.9249 90.795C93.3614 89.9736 94.0975 88.2579 95.1332 85.6481C96.3144 82.7645 97.6326 79.9536 99.0876 77.2154C111.019 54.7627 127.686 39.9179 149.088 32.6809C170.49 25.444 194.198 28.7369 220.21 42.5597ZM83.7686 241.833L135.93 269.551L108.43 321.302L56.2685 293.584L83.7686 241.833Z" fill="#F60100"/>
</svg>
